<?xml version="1.0" encoding="UTF-8" standalone="no"?>
<!-- Created with Inkscape (http://www.inkscape.org/) -->

<svg
   xmlns:dc="http://purl.org/dc/elements/1.1/"
   xmlns:cc="http://creativecommons.org/ns#"
   xmlns:rdf="http://www.w3.org/1999/02/22-rdf-syntax-ns#"
   xmlns:svg="http://www.w3.org/2000/svg"
   xmlns="http://www.w3.org/2000/svg"
   xmlns:sodipodi="http://sodipodi.sourceforge.net/DTD/sodipodi-0.dtd"
   xmlns:inkscape="http://www.inkscape.org/namespaces/inkscape"
   width="100"
   height="100"
   viewBox="0 0 26.458333 26.458334"
   version="1.1"
   id="svg4698"
   inkscape:version="0.92.1 r15371"
   sodipodi:docname="Instagram.svg">
  <defs
     id="defs4692" />
  <sodipodi:namedview
     id="base"
     pagecolor="#ffffff"
     bordercolor="#666666"
     borderopacity="1.0"
     inkscape:pageopacity="0.0"
     inkscape:pageshadow="2"
     inkscape:zoom="0.35"
     inkscape:cx="-87.142857"
     inkscape:cy="560"
     inkscape:document-units="mm"
     inkscape:current-layer="layer1"
     showgrid="false"
     units="px"
     inkscape:window-width="1920"
     inkscape:window-height="1018"
     inkscape:window-x="-8"
     inkscape:window-y="-8"
     inkscape:window-maximized="1" />
  <metadata
     id="metadata4695">
    <rdf:RDF>
      <cc:Work
         rdf:about="">
        <dc:format>image/svg+xml</dc:format>
        <dc:type
           rdf:resource="http://purl.org/dc/dcmitype/StillImage" />
        <dc:title></dc:title>
      </cc:Work>
    </rdf:RDF>
  </metadata>
  <g
     inkscape:label="Layer 1"
     inkscape:groupmode="layer"
     id="layer1"
     transform="translate(0,-270.54165)">
    <path
       style="color:#000000;font-style:normal;font-variant:normal;font-weight:normal;font-stretch:normal;font-size:medium;line-height:normal;font-family:sans-serif;font-variant-ligatures:normal;font-variant-position:normal;font-variant-caps:normal;font-variant-numeric:normal;font-variant-alternates:normal;font-feature-settings:normal;text-indent:0;text-align:start;text-decoration:none;text-decoration-line:none;text-decoration-style:solid;text-decoration-color:#000000;letter-spacing:normal;word-spacing:normal;text-transform:none;writing-mode:lr-tb;direction:ltr;text-orientation:mixed;dominant-baseline:auto;baseline-shift:baseline;text-anchor:start;white-space:normal;shape-padding:0;clip-rule:nonzero;display:inline;overflow:visible;visibility:visible;opacity:1;isolation:auto;mix-blend-mode:normal;color-interpolation:sRGB;color-interpolation-filters:linearRGB;solid-color:#000000;solid-opacity:1;vector-effect:none;fill:#1a1a1a;fill-opacity:1;fill-rule:evenodd;stroke:#373737;stroke-width:0.26458332;stroke-linecap:butt;stroke-linejoin:miter;stroke-miterlimit:4;stroke-dasharray:none;stroke-dashoffset:0;stroke-opacity:0.2035398;marker:none;color-rendering:auto;image-rendering:auto;shape-rendering:auto;text-rendering:auto;enable-background:accumulate"
       d="m 13.228891,270.67394 c -7.2265898,0 -13.09659983,5.87044 -13.09659983,13.09688 0,7.22644 5.87001003,13.09687 13.09659983,13.09687 7.2266,0 13.097151,-5.87043 13.097151,-13.09687 0,-7.22644 -5.870551,-13.09688 -13.097151,-13.09688 z m 0,1.12845 c 6.61702,0 11.96924,5.35154 11.96924,11.96843 0,6.61688 -5.35222,11.96843 -11.96924,11.96843 -6.6170098,0 -11.9686798,-5.35155 -11.9686798,-11.96843 0,-6.61689 5.35167,-11.96843 11.9686798,-11.96843 z m -2.91505,4.38049 c -2.5822798,0 -4.6807598,2.09851 -4.6807598,4.68064 v 5.81404 c 0,2.58214 2.09848,4.68065 4.6807598,4.68065 h 5.88795 c 2.58225,0 4.6791,-2.09851 4.6791,-4.68065 v -5.81404 c 0,-2.58213 -2.09685,-4.68064 -4.6791,-4.68064 z m 0,1.21491 h 5.88795 c 1.93006,0 3.4636,1.53576 3.4636,3.46573 v 5.81404 c 0,1.92998 -1.53354,3.46519 -3.4636,3.46519 h -5.88795 c -1.9300898,0 -3.4652698,-1.53521 -3.4652698,-3.46519 v -5.81404 c 0,-1.92997 1.53518,-3.46573 3.4652698,-3.46573 z m 7.0065,1.3234 a 0.9973446,0.99729962 0 0 0 -0.99739,0.99682 0.9973446,0.99729962 0 0 0 0.99739,0.99737 0.9973446,0.99729962 0 0 0 0.99738,-0.99737 0.9973446,0.99729962 0 0 0 -0.99738,-0.99682 z m -4.14323,1.23198 c -2.12384,0 -3.8557198,1.73303 -3.8557198,3.85675 0,2.12372 1.7318798,3.85565 3.8557198,3.85565 2.12384,0 3.85685,-1.73193 3.85685,-3.85565 0,-2.12372 -1.73301,-3.85675 -3.85685,-3.85675 z m 0,1.01334 c 1.57655,0 2.84348,1.26694 2.84348,2.84341 0,1.57648 -1.26693,2.84341 -2.84348,2.84341 -1.57655,0 -2.84401,-1.26693 -2.84401,-2.84341 0,-1.57647 1.26746,-2.84341 2.84401,-2.84341 z"
       id="path4545-3"
       inkscape:connector-curvature="0" />
  </g>
</svg>
