<?xml version="1.0" encoding="UTF-8" standalone="no"?>
<!-- Created with Inkscape (http://www.inkscape.org/) -->

<svg
   xmlns:dc="http://purl.org/dc/elements/1.1/"
   xmlns:cc="http://creativecommons.org/ns#"
   xmlns:rdf="http://www.w3.org/1999/02/22-rdf-syntax-ns#"
   xmlns:svg="http://www.w3.org/2000/svg"
   xmlns="http://www.w3.org/2000/svg"
   xmlns:sodipodi="http://sodipodi.sourceforge.net/DTD/sodipodi-0.dtd"
   xmlns:inkscape="http://www.inkscape.org/namespaces/inkscape"
   width="100"
   height="100"
   viewBox="0 0 26.458333 26.458334"
   version="1.1"
   id="svg4698"
   inkscape:version="0.92.1 r15371"
   sodipodi:docname="Snapchat.svg">
  <defs
     id="defs4692" />
  <sodipodi:namedview
     id="base"
     pagecolor="#ffffff"
     bordercolor="#666666"
     borderopacity="1.0"
     inkscape:pageopacity="0.0"
     inkscape:pageshadow="2"
     inkscape:zoom="0.35"
     inkscape:cx="-87.142857"
     inkscape:cy="560"
     inkscape:document-units="mm"
     inkscape:current-layer="layer1"
     showgrid="false"
     units="px"
     inkscape:window-width="1920"
     inkscape:window-height="1018"
     inkscape:window-x="-8"
     inkscape:window-y="-8"
     inkscape:window-maximized="1" />
  <metadata
     id="metadata4695">
    <rdf:RDF>
      <cc:Work
         rdf:about="">
        <dc:format>image/svg+xml</dc:format>
        <dc:type
           rdf:resource="http://purl.org/dc/dcmitype/StillImage" />
        <dc:title></dc:title>
      </cc:Work>
    </rdf:RDF>
  </metadata>
  <g
     inkscape:label="Layer 1"
     inkscape:groupmode="layer"
     id="layer1"
     transform="translate(0,-270.54165)">
    <path
       style="color:#000000;display:inline;overflow:visible;visibility:visible;fill:#1a1a1a;fill-opacity:1;fill-rule:evenodd;stroke:none;stroke-width:0.26458332px;stroke-linecap:butt;stroke-linejoin:miter;stroke-miterlimit:4;stroke-dasharray:none;stroke-dashoffset:0;stroke-opacity:1;marker:none;enable-background:accumulate"
       d="m 13.229452,270.54165 c -7.2995804,0 -13.2294504333333,5.92974 -13.2294504333333,13.22917 0,7.29943 5.9298700333333,13.22916 13.2294504333333,13.22916 7.29958,0 13.22888,-5.92973 13.22888,-13.22916 0,-7.29943 -5.9293,-13.22917 -13.22888,-13.22917 z m 0,1.13985 c 6.68386,0 12.08958,5.40559 12.08958,12.08932 0,6.68372 -5.40572,12.08932 -12.08958,12.08932 -6.6838704,0 -12.0901404,-5.4056 -12.0901404,-12.08932 0,-6.68373 5.40627,-12.08932 12.0901404,-12.08932 z m -5.82e-4,4.29401 c -1.46083,0.0139 -3.00445,0.64485 -3.7850904,2.1406 -0.46856,0.89783 -0.43724,1.89077 -0.28928,3.88403 -0.75164,0.25688 -0.96962,-0.16134 -1.37574,-0.19859 -0.25524,-0.0235 -0.48567,0.0928 -0.64919,0.39218 -0.27517,0.7045 1.76178,0.8482 1.9109,1.38072 0.20732,1.11007 -1.80304,3.1895 -3.05744,3.37724 -0.26515,0.0601 -0.70532,0.0987 -0.31989,0.50233 0.50602,0.50969 0.97756,0.46658 1.74567,0.55296 0.17264,0.02 0.26281,0.13072 0.27927,0.30929 0.12264,0.97666 0.20525,0.76937 1.35239,0.62083 1.3986704,-0.15147 1.8213504,0.64645 2.7670404,1.14652 0.49165,0.26816 0.91726,0.32013 1.42136,0.33099 0.5041,-0.0108 0.92915,-0.0628 1.42079,-0.33099 0.9457,-0.50007 1.36838,-1.29799 2.76706,-1.14652 1.14714,0.14854 1.22974,0.35583 1.35237,-0.62083 0.0165,-0.17857 0.10658,-0.28926 0.27926,-0.30929 0.76813,-0.0865 1.23967,-0.0431 1.74568,-0.55296 0.385442,-0.40363 -0.05429,-0.44219 -0.319308,-0.50233 -1.25441,-0.18774 -3.26531,-2.26717 -3.05799,-3.37724 0.14911,-0.53252 2.18607,-0.67622 1.9109,-1.38072 -0.16352,-0.29936 -0.39395,-0.41562 -0.64921,-0.39218 -0.4061,0.0373 -0.62411,0.45547 -1.37574,0.19859 0.14796,-1.99326 0.17929,-2.9862 -0.28927,-3.88403 -0.78063,-1.49575 -2.3237,-2.12685 -3.78453,-2.1406 z"
       id="path4557-2"
       inkscape:connector-curvature="0" />
  </g>
</svg>
