<?xml version="1.0" encoding="UTF-8" standalone="no"?>
<!-- Created with Inkscape (http://www.inkscape.org/) -->

<svg
   xmlns:dc="http://purl.org/dc/elements/1.1/"
   xmlns:cc="http://creativecommons.org/ns#"
   xmlns:rdf="http://www.w3.org/1999/02/22-rdf-syntax-ns#"
   xmlns:svg="http://www.w3.org/2000/svg"
   xmlns="http://www.w3.org/2000/svg"
   xmlns:sodipodi="http://sodipodi.sourceforge.net/DTD/sodipodi-0.dtd"
   xmlns:inkscape="http://www.inkscape.org/namespaces/inkscape"
   width="100"
   height="100"
   viewBox="0 0 26.458333 26.458334"
   version="1.1"
   id="svg4698"
   inkscape:version="0.92.1 r15371"
   sodipodi:docname="Twitter.svg">
  <defs
     id="defs4692" />
  <sodipodi:namedview
     id="base"
     pagecolor="#ffffff"
     bordercolor="#666666"
     borderopacity="1.0"
     inkscape:pageopacity="0.0"
     inkscape:pageshadow="2"
     inkscape:zoom="0.35"
     inkscape:cx="-87.142857"
     inkscape:cy="560"
     inkscape:document-units="mm"
     inkscape:current-layer="layer1"
     showgrid="false"
     units="px"
     inkscape:window-width="1920"
     inkscape:window-height="1018"
     inkscape:window-x="-8"
     inkscape:window-y="-8"
     inkscape:window-maximized="1" />
  <metadata
     id="metadata4695">
    <rdf:RDF>
      <cc:Work
         rdf:about="">
        <dc:format>image/svg+xml</dc:format>
        <dc:type
           rdf:resource="http://purl.org/dc/dcmitype/StillImage" />
        <dc:title></dc:title>
      </cc:Work>
    </rdf:RDF>
  </metadata>
  <g
     inkscape:label="Layer 1"
     inkscape:groupmode="layer"
     id="layer1"
     transform="translate(0,-270.54165)">
    <path
       style="color:#000000;display:inline;overflow:visible;visibility:visible;opacity:1;fill:#1a1a1a;fill-opacity:1;fill-rule:evenodd;stroke:none;stroke-width:0.26458332px;stroke-linecap:butt;stroke-linejoin:miter;stroke-miterlimit:4;stroke-dasharray:none;stroke-dashoffset:0;stroke-opacity:1;marker:none;enable-background:accumulate"
       d="m 13.229181,270.54165 c -7.2994698,0 -13.2291798333333,5.92974 -13.2291798333333,13.22917 0,7.29943 5.9297100333333,13.22916 13.2291798333333,13.22916 7.29942,0 13.229151,-5.92973 13.229151,-13.22916 0,-7.29943 -5.929731,-13.22917 -13.229151,-13.22917 z m 0,1.13985 c 6.68371,0 12.08933,5.40559 12.08933,12.08932 0,6.68372 -5.40562,12.08932 -12.08933,12.08932 -6.6837298,0 -12.0893598,-5.4056 -12.0893598,-12.08932 0,-6.68373 5.40563,-12.08932 12.0893598,-12.08932 z m 2.90939,5.83716 c -1.78583,-0.0101 -3.50945,1.46819 -3.07795,3.84953 -2.65205,-0.0562 -4.9495898,-1.45193 -6.5186398,-3.26765 -0.82197,1.55703 -0.35979,3.11464 0.86839,4.17219 -0.46199,0.0249 -0.99799,-0.1825 -1.31677,-0.32488 0.0383,0.99484 0.4001,2.40139 2.42657,3.13192 -0.35163,0.0849 -0.84336,0.0888 -1.31174,0.0462 0.43147,1.35422 1.63737,2.06187 2.8470998,2.19123 -1.0249898,0.95618 -2.8761498,1.4611 -4.5360098,1.27336 4.41897,3.26189 13.7544298,1.0872 13.7659798,-7.92549 0.69058,-0.48149 1.11554,-0.95644 1.53984,-1.66553 -0.631,0.27247 -1.17223,0.48675 -1.86026,0.51234 0.88087,-0.52858 1.17447,-1.07022 1.43525,-1.70392 -0.47807,0.2441 -1.25116,0.55085 -1.9843,0.70149 -0.64093,-0.6743 -1.46571,-0.98631 -2.27746,-0.99076 z"
       id="path4527-3"
       inkscape:connector-curvature="0" />
  </g>
</svg>
