<?xml version="1.0" encoding="utf-8"?>
<!-- Generator: Adobe Illustrator 22.1.0, SVG Export Plug-In . SVG Version: 6.00 Build 0)  -->
<svg version="1.1" id="Layer_1" xmlns="http://www.w3.org/2000/svg" xmlns:xlink="http://www.w3.org/1999/xlink" x="0px" y="0px"
	 viewBox="0 0 1164.8 110" style="enable-background:new 0 0 1164.8 110;" xml:space="preserve">
<style type="text/css">
	.st0{fill:#004876;}
	.st1{fill:#FFFFFF;}
	.st2{fill:#FFC629;}
	.st3{fill:#354045;}
</style>
<g>
	<polygon class="st0" points="87.8,0.4 271.5,0.4 287,35.2 273.9,50.3 250.7,50.3 262.7,63.1 252.1,75.2 230.2,75.2 199.9,110 
		187.8,110 144.6,71.2 116.4,71.2 103.5,57.7 50.5,57.7 35.9,67 -0.6,67 -0.6,57 	"/>
	<g>
		<path class="st1" d="M179.4,17.3l4.4,13.5l14.2,0c0.9,0,1,0.4,0.3,0.9L186.8,40l4.4,13.5c0.3,0.8-0.1,1.1-0.8,0.6L179,45.7
			l-11.5,8.4c-0.7,0.5-1,0.3-0.8-0.6l4.4-13.5l-11.5-8.3c-0.7-0.5-0.6-0.9,0.3-0.9l14.2,0l4.4-13.5
			C178.7,16.4,179.2,16.4,179.4,17.3"/>
		<path class="st2" d="M144.7,53.9c-0.6,0-0.8-0.2-1.1-0.9l-10.3-25.8c-0.1-0.2-0.4-0.2-0.4,0.1v25.5c0,0.6-0.5,1-1,1h-2.7
			c-0.6,0-1-0.5-1-1V18.5c0-0.6,0.5-1,1-1h4.3c0.6,0,0.8,0.2,1.1,0.9L145,44.1c0.1,0.2,0.4,0.2,0.4-0.1V18.5c0-0.6,0.5-1,1-1h2.7
			c0.6,0,1,0.5,1,1v34.4c0,0.6-0.5,1-1,1H144.7z"/>
		<path class="st2" d="M230.8,43.5c0,5.8-4.8,10.8-11.7,10.8c-6.2,0-10.9-4.1-11.7-10.8c-0.5-4.2-0.5-11.5,0-15.6
			c0.7-5.7,4.8-10.8,11.7-10.8c6.2,0,11.7,4.1,11.7,10.8v0.7c0,0.6-0.5,1-1,1h-2.9c-0.6,0-1-0.5-1-1v-0.7c0-3.1-2.7-5.8-6.8-5.9
			c-3.4,0-6.3,2.1-6.8,5.9c-0.5,4.3-0.5,11.4,0,15.6c0.4,3,2.7,5.9,6.8,5.9c3.5,0,6.8-2.1,6.8-5.9v-0.7c0-0.6,0.5-1,1-1h2.9
			c0.6,0,1,0.5,1,1V43.5z"/>
	</g>
</g>
<g>
	<g>
		<path class="st3" d="M337.3,72.7c-0.1-1.1-0.1-2.1-0.2-2.9c0-0.8-0.1-1.5-0.1-2.1c0-0.6-0.1-1.1-0.1-1.5c0-0.4,0-0.8,0-1.2V51.8
			h10.9V90h-9.2l-16-20.6l0.2,8.3V90h-10.9V51.8h9.2L337.3,72.7z"/>
		<path class="st3" d="M399.9,71c0,3.2-0.5,6-1.6,8.5c-1,2.5-2.5,4.6-4.4,6.3c-1.9,1.7-4.1,3-6.7,3.9s-5.5,1.3-8.6,1.3
			c-3.1,0-6-0.4-8.6-1.3c-2.6-0.9-4.8-2.2-6.7-3.9c-1.9-1.7-3.3-3.8-4.4-6.3c-1-2.5-1.6-5.3-1.6-8.5c0-3.1,0.5-5.9,1.6-8.4
			c1-2.5,2.5-4.6,4.4-6.3c1.9-1.7,4.1-3.1,6.7-4c2.6-0.9,5.5-1.4,8.6-1.4c3.1,0,6,0.5,8.6,1.4c2.6,0.9,4.8,2.2,6.7,3.9
			c1.9,1.7,3.3,3.8,4.4,6.3C399.4,64.9,399.9,67.8,399.9,71z M389.1,71c0-1.7-0.2-3.2-0.7-4.5c-0.5-1.3-1.2-2.5-2.1-3.4
			c-0.9-0.9-2-1.7-3.3-2.2c-1.3-0.5-2.7-0.8-4.3-0.8c-1.6,0-3,0.3-4.2,0.8c-1.3,0.5-2.4,1.3-3.3,2.2c-0.9,1-1.6,2.1-2.1,3.4
			c-0.5,1.3-0.8,2.8-0.8,4.4c0,1.6,0.3,3,0.8,4.4c0.5,1.3,1.2,2.5,2.1,3.4c0.9,0.9,2,1.7,3.3,2.2c1.3,0.5,2.7,0.8,4.2,0.8
			c1.6,0,3-0.3,4.3-0.8c1.3-0.5,2.4-1.3,3.3-2.2c0.9-1,1.6-2.1,2.1-3.4C388.8,74,389.1,72.6,389.1,71z"/>
		<path class="st3" d="M444.9,90H433l-8.9-12.4h-3.8V90h-10.8V51.8h18.7c2.4,0,4.6,0.4,6.5,1.1c1.9,0.7,3.4,1.7,4.7,2.9
			c1.2,1.2,2.2,2.6,2.8,4.2c0.6,1.6,1,3.2,1,4.9c0,1.2-0.1,2.3-0.4,3.4c-0.2,1.1-0.7,2.1-1.3,3.1c-0.6,1-1.4,1.9-2.5,2.7
			c-1,0.8-2.4,1.6-4,2.3l10,12.9V90z M420.3,60.5v9.2h7.9c1.4,0,2.5-0.4,3.2-1.3c0.7-0.9,1-1.9,1-3.1c0-0.6-0.1-1.2-0.3-1.7
			c-0.2-0.6-0.4-1.1-0.8-1.5c-0.4-0.4-0.8-0.8-1.3-1.1c-0.5-0.3-1.1-0.4-1.9-0.4H420.3z"/>
		<path class="st3" d="M462.9,60.7h-11.2v-8.9h33.1v8.9h-11.2V90h-10.7V60.7z"/>
		<path class="st3" d="M520.2,90V75.6h-13.8V90h-10.8V51.8h10.8v14.5h13.8V51.8h10.7V90H520.2z"/>
	</g>
	<g>
		<path class="st3" d="M594.1,85.1c-2.2,2.2-4.6,3.7-7.1,4.6c-2.5,0.9-5.3,1.4-8.3,1.4c-3.7,0-6.9-0.5-9.6-1.6
			c-2.6-1.1-4.8-2.6-6.5-4.4c-1.7-1.8-2.9-3.9-3.7-6.3c-0.8-2.4-1.2-4.9-1.2-7.4c0-2.5,0.4-4.9,1.2-7.3c0.8-2.4,2.1-4.6,3.8-6.5
			c1.7-1.9,3.9-3.5,6.5-4.6c2.6-1.2,5.7-1.8,9.3-1.8c2.8,0,5.4,0.5,7.8,1.5c2.4,1,4.8,2.5,7,4.6l-6.7,6.5c-1.4-1.3-2.8-2.2-4.2-2.6
			c-1.4-0.4-2.7-0.7-4-0.7c-1.9,0-3.5,0.3-4.7,1c-1.3,0.7-2.3,1.5-3.1,2.6c-0.8,1.1-1.4,2.2-1.7,3.6c-0.4,1.3-0.6,2.6-0.6,3.8
			c0,1.2,0.2,2.5,0.5,3.7c0.4,1.3,0.9,2.4,1.7,3.4c0.8,1,1.8,1.9,3.2,2.5c1.3,0.6,2.9,1,4.8,1c1.3,0,2.8-0.3,4.5-0.9
			c1.6-0.6,3.2-1.6,4.5-3L594.1,85.1z"/>
		<path class="st3" d="M630,83.8h-17.1l-2.5,6.3H599l17.1-38.2H627L644.1,90h-11.6L630,83.8z M621.5,62.5l-4.9,12.2h9.8L621.5,62.5z
			"/>
		<path class="st3" d="M686.7,90h-11.9l-8.9-12.4h-3.8V90h-10.8V51.8h18.7c2.4,0,4.6,0.4,6.5,1.1c1.9,0.7,3.4,1.7,4.7,2.9
			c1.2,1.2,2.2,2.6,2.8,4.2c0.6,1.6,1,3.2,1,4.9c0,1.2-0.1,2.3-0.4,3.4c-0.2,1.1-0.7,2.1-1.3,3.1c-0.6,1-1.4,1.9-2.5,2.7
			c-1,0.8-2.4,1.6-4,2.3l10,12.9V90z M662.1,60.5v9.2h7.9c1.4,0,2.5-0.4,3.2-1.3c0.7-0.9,1-1.9,1-3.1c0-0.6-0.1-1.2-0.3-1.7
			c-0.2-0.6-0.4-1.1-0.8-1.5c-0.4-0.4-0.8-0.8-1.3-1.1c-0.5-0.3-1.1-0.4-1.9-0.4H662.1z"/>
		<path class="st3" d="M735.6,71c0,3.2-0.5,6-1.6,8.5c-1,2.5-2.5,4.6-4.4,6.3c-1.9,1.7-4.1,3-6.7,3.9s-5.5,1.3-8.6,1.3
			c-3.1,0-6-0.4-8.6-1.3c-2.6-0.9-4.8-2.2-6.7-3.9c-1.9-1.7-3.3-3.8-4.4-6.3c-1-2.5-1.6-5.3-1.6-8.5c0-3.1,0.5-5.9,1.6-8.4
			c1-2.5,2.5-4.6,4.4-6.3c1.9-1.7,4.1-3.1,6.7-4c2.6-0.9,5.5-1.4,8.6-1.4c3.1,0,6,0.5,8.6,1.4c2.6,0.9,4.8,2.2,6.7,3.9
			c1.9,1.7,3.3,3.8,4.4,6.3C735.1,64.9,735.6,67.8,735.6,71z M724.8,71c0-1.7-0.2-3.2-0.7-4.5c-0.5-1.3-1.2-2.5-2.1-3.4
			c-0.9-0.9-2-1.7-3.3-2.2c-1.3-0.5-2.7-0.8-4.3-0.8c-1.6,0-3,0.3-4.2,0.8c-1.3,0.5-2.4,1.3-3.3,2.2c-0.9,1-1.6,2.1-2.1,3.4
			c-0.5,1.3-0.8,2.8-0.8,4.4c0,1.6,0.3,3,0.8,4.4c0.5,1.3,1.2,2.5,2.1,3.4c0.9,0.9,2,1.7,3.3,2.2c1.3,0.5,2.7,0.8,4.2,0.8
			c1.6,0,3-0.3,4.3-0.8c1.3-0.5,2.4-1.3,3.3-2.2c0.9-1,1.6-2.1,2.1-3.4C724.6,74,724.8,72.6,724.8,71z"/>
		<path class="st3" d="M756.1,51.8v29h18.3V90h-29.1V51.8H756.1z"/>
		<path class="st3" d="M783.8,90V51.8h10.8V90H783.8z"/>
		<path class="st3" d="M830.1,72.7c-0.1-1.1-0.1-2.1-0.2-2.9c0-0.8-0.1-1.5-0.1-2.1c0-0.6-0.1-1.1-0.1-1.5c0-0.4,0-0.8,0-1.2V51.8
			h10.9V90h-9.2l-16-20.6l0.2,8.3V90h-10.9V51.8h9.2L830.1,72.7z"/>
		<path class="st3" d="M878.9,83.8h-17.1l-2.5,6.3h-11.4L865,51.8h10.9L893,90h-11.6L878.9,83.8z M870.4,62.5l-4.9,12.2h9.8
			L870.4,62.5z"/>
	</g>
</g>
<g>
	<path class="st3" d="M938.1,62.3c-1.3-1-2.7-1.7-4.2-2.1c-1.5-0.4-3.1-0.6-4.8-0.6c-0.6,0-1.3,0.1-1.9,0.2
		c-0.6,0.1-1.2,0.3-1.7,0.5c-0.5,0.2-0.9,0.5-1.2,0.9c-0.3,0.4-0.5,0.8-0.5,1.3c0,0.7,0.2,1.2,0.5,1.6c0.3,0.4,0.8,0.7,1.3,0.9
		c0.5,0.2,1.2,0.4,2,0.5c0.8,0.1,1.6,0.2,2.6,0.3c1.9,0.2,3.8,0.6,5.6,1.1c1.8,0.5,3.5,1.3,5,2.3c1.5,1,2.6,2.2,3.6,3.7
		c0.9,1.5,1.4,3.4,1.4,5.6c0,2.2-0.5,4.1-1.4,5.6c-0.9,1.6-2.2,2.8-3.7,3.9c-1.6,1-3.3,1.8-5.4,2.3c-2,0.5-4.1,0.7-6.3,0.7
		c-1.7,0-3.3-0.1-4.8-0.3c-1.5-0.2-2.9-0.5-4.3-1c-1.4-0.5-2.7-1.2-4-2c-1.3-0.9-2.6-2-3.9-3.4l5.9-6.8c1,0.9,1.9,1.7,2.9,2.2
		c1,0.6,1.9,1,2.9,1.3c1,0.3,1.9,0.5,2.8,0.6c0.9,0.1,1.8,0.2,2.6,0.2c1.8,0,3.3-0.3,4.3-0.9c1.1-0.6,1.6-1.4,1.6-2.5
		c0-1.9-2.1-3.1-6.4-3.5c-2.1-0.2-4.1-0.5-6-0.9c-1.9-0.4-3.6-1.1-5-2c-1.4-0.9-2.6-2.1-3.4-3.7c-0.8-1.5-1.2-3.5-1.2-5.8
		c0-2,0.5-3.7,1.4-5.2c0.9-1.4,2.1-2.6,3.6-3.6c1.5-1,3.2-1.7,5.1-2.1c1.9-0.4,3.9-0.7,5.9-0.7c2.9,0,5.4,0.3,7.7,1
		c2.3,0.7,4.5,1.8,6.6,3.5L938.1,62.3z"/>
	<path class="st3" d="M971,64.8l8.2-13.1h12.2v0.5l-15.2,22.5v15.2h-10.8V74.7l-14.5-22.6v-0.4h12.2L971,64.8z"/>
	<path class="st3" d="M1022.2,62.3c-1.3-1-2.7-1.7-4.2-2.1c-1.5-0.4-3.1-0.6-4.8-0.6c-0.6,0-1.3,0.1-1.9,0.2
		c-0.6,0.1-1.2,0.3-1.7,0.5c-0.5,0.2-0.9,0.5-1.2,0.9c-0.3,0.4-0.5,0.8-0.5,1.3c0,0.7,0.2,1.2,0.5,1.6c0.3,0.4,0.8,0.7,1.3,0.9
		c0.5,0.2,1.2,0.4,2,0.5c0.8,0.1,1.6,0.2,2.6,0.3c1.9,0.2,3.8,0.6,5.6,1.1c1.8,0.5,3.5,1.3,5,2.3c1.5,1,2.6,2.2,3.6,3.7
		c0.9,1.5,1.4,3.4,1.4,5.6c0,2.2-0.5,4.1-1.4,5.6c-0.9,1.6-2.2,2.8-3.7,3.9c-1.6,1-3.3,1.8-5.4,2.3c-2,0.5-4.1,0.7-6.3,0.7
		c-1.7,0-3.3-0.1-4.8-0.3c-1.5-0.2-2.9-0.5-4.3-1c-1.4-0.5-2.7-1.2-4-2c-1.3-0.9-2.6-2-3.9-3.4l5.9-6.8c1,0.9,1.9,1.7,2.9,2.2
		c1,0.6,1.9,1,2.9,1.3c1,0.3,1.9,0.5,2.8,0.6c0.9,0.1,1.8,0.2,2.6,0.2c1.8,0,3.3-0.3,4.3-0.9c1.1-0.6,1.6-1.4,1.6-2.5
		c0-1.9-2.1-3.1-6.4-3.5c-2.1-0.2-4.1-0.5-6-0.9c-1.9-0.4-3.6-1.1-5-2c-1.4-0.9-2.6-2.1-3.4-3.7c-0.8-1.5-1.2-3.5-1.2-5.8
		c0-2,0.5-3.7,1.4-5.2c0.9-1.4,2.1-2.6,3.6-3.6c1.5-1,3.2-1.7,5.1-2.1c1.9-0.4,3.9-0.7,5.9-0.7c2.9,0,5.4,0.3,7.7,1
		c2.3,0.7,4.5,1.8,6.6,3.5L1022.2,62.3z"/>
	<path class="st3" d="M1048.3,60.6h-11.2v-8.9h33.1v8.9h-11.2v29.3h-10.7V60.6z"/>
	<path class="st3" d="M1111.9,89.9h-30.6V51.7h29.8v9.1H1092v5.5h18.1V75H1092v5.8h19.9V89.9z"/>
	<path class="st3" d="M1153.5,67.1l-9.8,11.6h-1.9l-9.5-11.5v22.7h-10.7V51.7h11.3l10.1,12.9l10-12.9h11.3v38.2h-10.7V67.1z"/>
</g>
<g>
	<g>
		<path class="st3" d="M497.3-0.1v21.4c0,2.8-0.4,5.3-1.2,7.5c-0.8,2.2-2,4-3.6,5.5c-1.6,1.5-3.4,2.6-5.7,3.4
			c-2.2,0.8-4.7,1.2-7.5,1.2c-2.8,0-5.3-0.4-7.5-1.1c-2.2-0.7-4.1-1.9-5.7-3.3c-1.6-1.5-2.7-3.3-3.6-5.5c-0.8-2.2-1.2-4.8-1.2-7.7
			V-0.1H472v21.3c0,3,0.7,5.2,2,6.5c1.3,1.3,3.1,2,5.3,2c2.2,0,3.9-0.7,5.3-2c1.3-1.3,2-3.5,2-6.4V-0.1H497.3z"/>
		<path class="st3" d="M534.1,20.7c-0.1-1.1-0.1-2.1-0.2-2.9c0-0.8-0.1-1.5-0.1-2.1c0-0.6-0.1-1.1-0.1-1.5c0-0.4,0-0.8,0-1.2V-0.1
			h10.9v38.2h-9.2l-16-20.6l0.2,8.3v12.2h-10.9V-0.1h9.2L534.1,20.7z"/>
		<path class="st3" d="M556.1,38.1V-0.1h10.8v38.2H556.1z"/>
		<path class="st3" d="M602.7,38.2h-10.5L576.3-0.1h11.9l4.4,11.4l4.8,14.2l4.9-14.2l4.3-11.4h12L602.7,38.2z"/>
		<path class="st3" d="M658.6,38.1H628V-0.1h29.8v9.1h-19.2v5.5h18.1v8.8h-18.1V29h19.9V38.1z"/>
		<path class="st3" d="M705,38.1H693l-8.9-12.4h-3.8v12.4h-10.8V-0.1h18.7c2.4,0,4.6,0.4,6.5,1.1c1.9,0.7,3.4,1.7,4.7,2.9
			c1.2,1.2,2.2,2.6,2.8,4.2c0.6,1.6,1,3.2,1,4.9c0,1.2-0.1,2.3-0.4,3.4c-0.2,1.1-0.7,2.1-1.3,3.1c-0.6,1-1.4,1.9-2.5,2.7
			c-1,0.8-2.4,1.6-4,2.3l10,12.9V38.1z M680.4,8.5v9.2h7.9c1.4,0,2.5-0.4,3.2-1.3c0.7-0.9,1-1.9,1-3.1c0-0.6-0.1-1.2-0.3-1.7
			c-0.2-0.6-0.4-1.1-0.8-1.5c-0.4-0.4-0.8-0.8-1.3-1.1c-0.5-0.3-1.1-0.4-1.9-0.4H680.4z"/>
		<path class="st3" d="M737.9,10.5c-1.3-1-2.7-1.7-4.2-2.1c-1.5-0.4-3.1-0.6-4.8-0.6c-0.6,0-1.3,0.1-1.9,0.2
			c-0.6,0.1-1.2,0.3-1.7,0.5c-0.5,0.2-0.9,0.5-1.2,0.9c-0.3,0.4-0.5,0.8-0.5,1.3c0,0.7,0.2,1.2,0.5,1.6c0.3,0.4,0.8,0.7,1.3,0.9
			c0.5,0.2,1.2,0.4,2,0.5c0.8,0.1,1.6,0.2,2.6,0.3c1.9,0.2,3.8,0.6,5.6,1.1c1.8,0.5,3.5,1.3,5,2.3c1.5,1,2.6,2.2,3.6,3.7
			c0.9,1.5,1.4,3.4,1.4,5.6c0,2.2-0.5,4.1-1.4,5.6c-0.9,1.6-2.2,2.8-3.7,3.9c-1.6,1-3.3,1.8-5.4,2.3c-2,0.5-4.1,0.7-6.3,0.7
			c-1.7,0-3.3-0.1-4.8-0.3c-1.5-0.2-2.9-0.5-4.3-1c-1.4-0.5-2.7-1.2-4-2c-1.3-0.9-2.6-2-3.9-3.4l5.9-6.8c1,0.9,1.9,1.7,2.9,2.2
			c1,0.6,1.9,1,2.9,1.3c1,0.3,1.9,0.5,2.8,0.6c0.9,0.1,1.8,0.2,2.6,0.2c1.8,0,3.3-0.3,4.3-0.9c1.1-0.6,1.6-1.4,1.6-2.5
			c0-1.9-2.1-3.1-6.4-3.5c-2.1-0.2-4.1-0.5-6-0.9c-1.9-0.4-3.6-1.1-5-2c-1.4-0.9-2.6-2.1-3.4-3.7c-0.8-1.5-1.2-3.5-1.2-5.8
			c0-2,0.5-3.7,1.4-5.2c0.9-1.4,2.1-2.6,3.6-3.6c1.5-1,3.2-1.7,5.1-2.1c1.9-0.4,3.9-0.7,5.9-0.7c2.9,0,5.4,0.3,7.7,1
			c2.3,0.7,4.5,1.8,6.6,3.5L737.9,10.5z"/>
		<path class="st3" d="M755.7,38.1V-0.1h10.8v38.2H755.7z"/>
		<path class="st3" d="M788.7,8.8h-11.2v-8.9h33.1v8.9h-11.2v29.3h-10.7V8.8z"/>
		<path class="st3" d="M838.7,13l8.2-13.1h12.2v0.5L844,22.9v15.2h-10.8V22.9L818.6,0.3v-0.4h12.2L838.7,13z"/>
	</g>
</g>
<g>
	<path class="st3" d="M327,6.2h-12.2V0.9c10.7,0,19.7,0,30.3,0v5.4H333V38h-6V6.2z"/>
	<path class="st3" d="M385,38V22.5h-19.6V38h-5.9V0.9h5.9V17H385V0.9h5.9V38H385z"/>
	<path class="st3" d="M434.2,38h-27.4c0-12.3,0-24.7,0-37.1H434v5.8h-21.3v10h20.5v5.5h-20.5v10h21.5V38z"/>
</g>
<g>
	<path class="st3" d="M916.4,19.5c0,10-6.1,19.2-19,19.2s-19-9.4-19-19.1c0-11.3,7.9-19.4,19.1-19.4C910.2,0.2,916.4,9.5,916.4,19.5
		z M897.4,33.2c9.2,0,13.1-6.5,13.1-13.6c0-6.8-3.9-13.9-13-14.1c-8.6,0-13.2,6-13.2,14.1C884.4,26.2,888.3,33.2,897.4,33.2z"/>
	<path class="st3" d="M930.5,37.9v-37h26.2v5.8h-20.3v11.3h19.3v5.5h-19.3v14.5H930.5z"/>
</g>
</svg>
