<?xml version="1.0" encoding="UTF-8" standalone="no"?>
<!-- Created with Inkscape (http://www.inkscape.org/) -->

<svg
   xmlns:dc="http://purl.org/dc/elements/1.1/"
   xmlns:cc="http://creativecommons.org/ns#"
   xmlns:rdf="http://www.w3.org/1999/02/22-rdf-syntax-ns#"
   xmlns:svg="http://www.w3.org/2000/svg"
   xmlns="http://www.w3.org/2000/svg"
   xmlns:sodipodi="http://sodipodi.sourceforge.net/DTD/sodipodi-0.dtd"
   xmlns:inkscape="http://www.inkscape.org/namespaces/inkscape"
   width="100"
   height="100"
   viewBox="0 0 26.458333 26.458334"
   version="1.1"
   id="svg4698"
   inkscape:version="0.92.1 r15371"
   sodipodi:docname="YT.svg">
  <defs
     id="defs4692" />
  <sodipodi:namedview
     id="base"
     pagecolor="#ffffff"
     bordercolor="#666666"
     borderopacity="1.0"
     inkscape:pageopacity="0.0"
     inkscape:pageshadow="2"
     inkscape:zoom="0.35"
     inkscape:cx="-87.142857"
     inkscape:cy="560"
     inkscape:document-units="mm"
     inkscape:current-layer="layer1"
     showgrid="false"
     units="px"
     inkscape:window-width="1920"
     inkscape:window-height="1018"
     inkscape:window-x="-8"
     inkscape:window-y="-8"
     inkscape:window-maximized="1" />
  <metadata
     id="metadata4695">
    <rdf:RDF>
      <cc:Work
         rdf:about="">
        <dc:format>image/svg+xml</dc:format>
        <dc:type
           rdf:resource="http://purl.org/dc/dcmitype/StillImage" />
        <dc:title></dc:title>
      </cc:Work>
    </rdf:RDF>
  </metadata>
  <g
     inkscape:label="Layer 1"
     inkscape:groupmode="layer"
     id="layer1"
     transform="translate(0,-270.54165)">
    <path
       style="color:#000000;display:inline;overflow:visible;visibility:visible;fill:#1a1a1a;fill-opacity:1;fill-rule:evenodd;stroke:none;stroke-width:0.26458332px;stroke-linecap:butt;stroke-linejoin:miter;stroke-miterlimit:4;stroke-dasharray:none;stroke-dashoffset:0;stroke-opacity:1;marker:none;enable-background:accumulate"
       d="m 13.229454,270.54165 c -7.2995743,0 -13.22945433333333,5.92974 -13.22945433333333,13.22917 0,7.29943 5.92988003333333,13.22916 13.22945433333333,13.22916 7.29958,0 13.22888,-5.92973 13.22888,-13.22916 0,-7.29943 -5.9293,-13.22917 -13.22888,-13.22917 z m 0,1.13985 c 6.68384,0 12.08958,5.40559 12.08958,12.08932 0,6.68372 -5.40574,12.08932 -12.08958,12.08932 -6.6838633,0 -12.0901443,-5.4056 -12.0901443,-12.08932 0,-6.68373 5.406281,-12.08932 12.0901443,-12.08932 z m -5.0690433,6.63655 c -1.17984,0 -2.12954,0.94964 -2.12954,2.12948 v 6.64546 c 0,1.17985 0.9497,2.13004 2.12954,2.13004 H 18.412514 c 1.17987,0 2.13011,-0.95019 2.13011,-2.13004 v -6.64546 c 0,-1.17984 -0.95024,-2.12948 -2.13011,-2.12948 z m 3.9063533,3.10911 3.58648,2.3431 -3.58648,2.34311 z"
       id="path4551-9"
       inkscape:connector-curvature="0" />
  </g>
</svg>
